<svg xmlns="http://www.w3.org/2000/svg" viewBox="0 0 479.97 635.39"><title>Recurso 12</title><g id="Capa_2" data-name="Capa 2"><g id="Capa_3" data-name="Capa 3"><path id="path6691" d="M235.6,635.39a329.23,329.23,0,0,1-46.35-40.11A340.64,340.64,0,0,1,103,434l-2.1-9.49L109,430a231.73,231.73,0,0,0,58.55,28.58l2,.66.78,2.05a301.14,301.14,0,0,0,12.88,29.4,293.44,293.44,0,0,0,16,27.79,288.41,288.41,0,0,0,19,25.84,308,308,0,0,0,21.65,23.61l-7.16-.09a286.41,286.41,0,0,0,41-48.28,294,294,0,0,0,29.49-56.06,288.42,288.42,0,0,0,16.74-61.09,296,296,0,0,0,3.17-63.29l2.47-2.66c7.92-1.64,16.39-3.71,25.28-6.32,10.63-3.13,20.34-6.59,29.08-10.12l.63,2.08a346.13,346.13,0,0,1,1.35,45.42,346.92,346.92,0,0,1-4.72,45.15A343.64,343.64,0,0,1,350.33,499a340.94,340.94,0,0,1-21.58,39.73,337.47,337.47,0,0,1-26.69,36.39,349.18,349.18,0,0,1-31.21,32.45A334.31,334.31,0,0,1,235.6,635.39Zm0,0a353.9,353.9,0,0,0,33.85-29.3l4-4,3.86-4,3.85-4.05c1.28-1.35,2.48-2.78,3.72-4.16,2.46-2.8,5-5.54,7.31-8.45l3.55-4.3,1.78-2.15,1.71-2.21a343.54,343.54,0,0,0,45.37-76.36,348.72,348.72,0,0,0,14.92-41.8c1-3.56,2.06-7.11,2.9-10.71s1.83-7.16,2.6-10.78c1.6-7.22,2.93-14.49,4-21.79a352.39,352.39,0,0,0,3.8-44.11,336.53,336.53,0,0,0-1.78-42.17l6.59,1.89a346.29,346.29,0,0,1-48.26,16.72l3.78-5.21A294.81,294.81,0,0,1,330.24,404a300.15,300.15,0,0,1-17.13,63.39,294.61,294.61,0,0,1-30.69,58.05,297.08,297.08,0,0,1-42.67,49.9l-3.64,3.4-3.52-3.49a286.34,286.34,0,0,1-22.22-24.62,299.77,299.77,0,0,1-48.47-86.29l2.79,2.71a240.08,240.08,0,0,1-60.13-30.7l6-4a347.45,347.45,0,0,0,125,203Z"/><path id="path6695" d="M236.21,571.58a249.21,249.21,0,0,1-23.36-23,263.82,263.82,0,0,1-20.36-25.85c-3.11-4.53-6.16-9.11-9-13.82s-5.55-9.52-8.14-14.39-5-9.82-7.32-14.84-4.41-10.12-6.41-15.27L158,455.21l9.63,3.05A215,215,0,0,0,208,469.17a221.34,221.34,0,0,0,94.82-5.06l13.84-6.3-3.91,9.1-3.25,7.56L306,481.93l-3.7,7.34-3.91,7.23-4.1,7.11-4.29,7-4.54,6.82-4.72,6.7a263.26,263.26,0,0,1-20.8,25.2A246.71,246.71,0,0,1,236.21,571.58Zm0,0c7.37-8,14.36-16.12,20.93-24.64s12.68-17.3,18.39-26.33l4.16-6.85,4-6.95,3.84-7,3.64-7.12,3.44-7.2,3.24-7.29,3.08-7.36q.94-2.08,1.88-4.19l6.85,3.11-4.32-3.11a231.36,231.36,0,0,1-61.95,10.12,271.27,271.27,0,0,1-41.72-2.53,325.23,325.23,0,0,1-37-6.87l6-6.2q2.64,7.57,5.67,15c2,5,4.14,9.89,6.4,14.75s4.66,9.66,7.22,14.39,5.13,9.44,7.88,14.07,5.67,9.15,8.63,13.66,6.06,8.93,9.29,13.26C222.11,555,229,563.41,236.21,571.58Z"/><path id="path6715" d="M308.25,465.16a230,230,0,0,1-104.73,9.39,219.78,219.78,0,0,1-26.14-5.22l-3.23-.83c-1.08-.28-2.14-.62-3.21-.93l-6.39-1.91c-4.25-1.35-8.45-2.84-12.62-4.42a235.07,235.07,0,0,1-47.42-24.67,232.56,232.56,0,0,1-40.74-34.83A237.77,237.77,0,0,1,.92,256.25L0,242.71,9.92,252A356.74,356.74,0,0,0,37.46,275.4a338.68,338.68,0,0,0,29.87,20.36l1.55.94.7,1.84c1.13,3,2.15,6.09,3.38,9.06s2.42,6,3.8,8.88a180.77,180.77,0,0,0,9,17.07,183.29,183.29,0,0,0,23.13,30.91,180.74,180.74,0,0,0,29.21,25.32A174.42,174.42,0,0,0,154.64,400c2.87,1.49,5.72,3,8.61,4.49l8.85,4a194.13,194.13,0,0,0,149.65-11.34c-.71,4.13.51,7.13,2.11,7.51,1.25.3,2.62-1,3-1.42l-.61,3.17a296.28,296.28,0,0,1-7.4,29.92A290.46,290.46,0,0,1,308.25,465.16Zm0,0a300,300,0,0,0,8.85-29.35,292,292,0,0,0,5.87-30l2.38,1.75c-2.18,1.15-5.33,2.76-9.2,4.54a190,190,0,0,1-67.78,17A185.17,185.17,0,0,1,208,427a193.68,193.68,0,0,1-39.08-10.69l-9.37-4c-3.05-1.46-6.08-3-9.12-4.49a164.87,164.87,0,0,1-17.5-10.4,188.09,188.09,0,0,1-65.6-76.53c-1.46-3.06-2.71-6.24-4.07-9.37s-2.4-6.37-3.61-9.55l2.25,2.79A347.45,347.45,0,0,1,31,283.89,323.39,323.39,0,0,1,2.58,259.77l9-4.22a228.54,228.54,0,0,0,9,50.62,237.17,237.17,0,0,0,20,47.41,232.45,232.45,0,0,0,68.52,76.26,239.07,239.07,0,0,0,45.31,25.06c4,1.66,8,3.24,12.12,4.69l6.17,2.05c1,.34,2.05.7,3.09,1l3.13.91c2.08.58,4.15,1.25,6.26,1.76l6.32,1.58c2.11.52,4.24.91,6.37,1.37l3.18.68,3.21.57A240,240,0,0,0,308.25,465.16Z"/><path id="path6719" d="M368,437.61a357.33,357.33,0,0,0,5.58-35.55,354.89,354.89,0,0,0,2-35.83v-.66L376,365A185.43,185.43,0,0,0,421.09,218.4a175.61,175.61,0,0,0-3.61-19.29A183.25,183.25,0,0,0,340.69,89.48l-8.79-5.8,9.93-3.55a290,290,0,0,1,60.92-14.79l2.56-.33,1.84,1.77a238.94,238.94,0,0,1,58.58,90,233.75,233.75,0,0,1,12.75,106.31A242.91,242.91,0,0,1,369.79,438.83Zm0,0,3.82-2.7a237.72,237.72,0,0,0,98.54-172.65,230.62,230.62,0,0,0-14-102,238.59,238.59,0,0,0-23.5-46.07,228.67,228.67,0,0,0-33.09-39.68l4.4,1.44c-10,1.36-19.94,3.2-29.76,5.54a285.5,285.5,0,0,0-29,8.58l1.14-9.35a187.76,187.76,0,0,1,32.25,286.85l.5-1.22a333.17,333.17,0,0,1-3.7,36A330.22,330.22,0,0,1,368,437.61Z"/><path id="path6723" d="M57.52,234a61.84,61.84,0,0,0,2.53,7.59c-2.48-2.12-6-5.15-10.12-8.85-7.28-6.51-13.88-12.41-20.22-19a202,202,0,0,1-19.59-23.61l-.47-.57.16-.79a259,259,0,0,1,6.87-26.25,254.88,254.88,0,0,1,9.84-25.35A250.53,250.53,0,0,1,39.3,113.16,246.19,246.19,0,0,1,54.78,90.68,235.6,235.6,0,0,1,93.17,51.82,238.13,238.13,0,0,1,115.51,36q5.79-3.68,11.87-6.88c2-1.08,4-2.19,6-3.24l6.2-2.94A238.2,238.2,0,0,1,191.53,5.22,233.38,233.38,0,0,1,246.19.05a241.69,241.69,0,0,1,54.43,7.46A238.21,238.21,0,0,1,351.9,27.23l11.84,6.17L350.89,37A336.85,336.85,0,0,0,317,48.36c-11.07,4.4-21.92,9.38-32.51,14.85l-1.7.88L281,63.67A183,183,0,0,0,163.92,75a162.73,162.73,0,0,0-17.74,9.31c-1.43.86-2.9,1.67-4.31,2.57l-4.18,2.78-4.19,2.76c-1.4.92-2.69,2-4,3A180,180,0,0,0,100,122.7a182.59,182.59,0,0,0-22.85,33.22C65.3,178.33,50,205.33,57.52,234ZM55,229c2.73-35.34,12.13-61.78,18.52-74.92A210.76,210.76,0,0,1,94.4,120.66c.5-.64.93-1.17,1.26-1.58a186,186,0,0,1,29.59-29.17c1.37-1.07,2.67-2.22,4.1-3.22l4.25-3,4.27-3c1.44-1,2.95-1.85,4.42-2.78a170.83,170.83,0,0,1,18.26-10.11,187.77,187.77,0,0,1,122.72-14l-3.48.46A340.12,340.12,0,0,1,348,26.83l-1,9.75a235.72,235.72,0,0,0-49.09-18.71A231.37,231.37,0,0,0,143.58,31.38l-6,2.74-5.85,3.05c-3.93,2-7.76,4.17-11.54,6.42A231.92,231.92,0,0,0,98.32,58.41a234.41,234.41,0,0,0-38,36.7,240.08,240.08,0,0,0-15.72,21.37A244.59,244.59,0,0,0,31.4,139.56,253,253,0,0,0,20.8,164,262.2,262.2,0,0,0,13,189.53l-.31-1.37a202.89,202.89,0,0,0,17,19.31A205.21,205.21,0,0,0,55,229Z"/><path id="path6727" d="M99.38,361.13a109.75,109.75,0,0,1-12.82-12.51,134.69,134.69,0,0,1-10.91-14.31,140.34,140.34,0,0,1-9-15.66c-1.28-2.73-2.56-5.46-3.77-8.23s-2.23-5.61-3.28-8.44l-5.19-14,13,7.71c3,1.77,6,3.48,9,5.21L85.44,306c3,1.65,6.08,3.34,9.16,4.94s6.15,3.24,9.23,4.85l1.73.45-2.7,24.39C101.72,347.38,100.66,354.22,99.38,361.13Zm0,0a151.28,151.28,0,0,1-2.08-20.9c-.13-3.5-.14-7-.09-10.51s.22-7,.47-10.5l2.57,4.57c-3.35-1.26-6.64-2.64-9.92-4.05s-6.52-2.93-9.71-4.54-6.37-3.24-9.49-5-6.21-3.55-9.26-5.41l7.79-6.29c1,2.67,1.87,5.4,2.84,8.09s2,5.35,3.1,8q3.24,8,7,15.74c2.51,5.19,5.15,10.35,8,15.45S96.37,356,99.38,361.13Z"/><path id="path6731" d="M151.11,403.15q-7.5-3.73-14.67-8.17c-4.78-2.93-9.39-6.15-13.87-9.55a177.61,177.61,0,0,1-24.85-22.88l-.51-.56,0-.87a334.62,334.62,0,0,1,5.57-68.43,343.77,343.77,0,0,1,19.48-66.07q6.64-15.94,14.71-31.26c5.46-10.15,11.38-20.06,17.81-29.64s13.46-18.74,20.8-27.65,15.25-17.32,23.47-25.42l3.16-3.12,3.64,2.55a297.27,297.27,0,0,1,38.5,32.11L248.2,148l-3.95,3.71a318.76,318.76,0,0,0-23.77,25,270.58,270.58,0,0,0-20.77,27.58,320.77,320.77,0,0,0-17.43,29.86,284.69,284.69,0,0,0-13.84,31.74,305.45,305.45,0,0,0-17.33,137.26Zm0,0a276.16,276.16,0,0,1-3.72-70.31,289.62,289.62,0,0,1,44.4-133.7,282.2,282.2,0,0,1,21-28.9,290.75,290.75,0,0,1,24.37-26.13l-.08,7.53a287.51,287.51,0,0,0-37.32-30.75l6.81-.56c-8,7.86-15.62,16-22.87,24.53s-14,17.49-20.32,26.7-12.2,18.76-17.69,28.53S135.3,220,130.79,230.22s-8.4,20.8-11.93,31.46c-1.65,5.36-3.39,10.7-4.84,16.13s-2.82,10.87-4,16.36q-3.7,16.45-5.82,33.25t-2.62,33.72l-.53-1.43a192.37,192.37,0,0,0,23.07,23.84c4.19,3.64,8.57,7.07,13.06,10.36S146.31,400.28,151.11,403.15Z"/><path id="path6735" d="M374.84,322.52q2.52-1.23,5.06-2.53a259.06,259.06,0,0,0,43-27.81,211.66,211.66,0,0,1-8.27,25.56c-2.45,6.19-5,11.88-7.63,17.07L404.56,339,402,343.1l-2.68,4a120.32,120.32,0,0,1-20.66,27.22l-6.51,3.13.89-11.32c.28-3.59.57-7.2.8-10.81.09-1.32.49-7.16.69-10.86C374.78,339.54,375,332.2,374.84,322.52Zm.94,0a160.63,160.63,0,0,1,4.27,21.74c.49,3.66.86,7.34,1.16,11s.47,7.38.56,11.08l-7.59-3.09c3.9-4.74,7.64-9.58,11.16-14.56L388,345l2.53-3.81,2.48-3.84,2.38-3.9,2.33-3.93,2.24-4,2.18-4,2.08-4.07c2.76-5.45,5.29-11,7.65-16.68l4.73,4.06-3.39,3.84q-2.58,1.18-5.16,2.45c-10,4.83-19.33,9.94-28.11,15.2Z"/><path id="path6739" d="M324.6,406.1l-10,5.32c-3.42,1.63-6.88,3.12-10.35,4.67s-7.09,2.66-10.64,4c-1.78.69-3.63,1.12-5.44,1.69l-5.48,1.6c-.91.29-1.83.51-2.76.71l-2.78.64L271.6,426l-1.39.32-1.41.23L266,427l-5.65.89-1.42.22-1.43.13-2.85.27-5.71.54a27.43,27.43,0,0,1-2.86.17l-2.87.1-5.74.19A179.33,179.33,0,0,1,156.13,411l-11.38-6.32,1.4-.84c-1.61-11.92-2.34-22.34-2.66-30.77-.45-11.77-.14-20.74,0-24,.28-6.93.77-12.92,1.26-17.7l6,.3A357.31,357.31,0,0,0,194.26,341a360.16,360.16,0,0,0,44.38,3.9,371.14,371.14,0,0,0,44.59-1.67,366.31,366.31,0,0,0,44.18-7.2l3.38-.78.13,3.32c.22,5.68.16,11.37,0,17.05s-.49,11.34-1,17-1.24,11.26-2.1,16.84S325.87,400.6,324.6,406.1Zm0,0c.6-5.61,1.12-11.22,1.45-16.83s.58-11.22.63-16.82,0-11.2-.23-16.79-.65-11.16-1.14-16.72l3.51,2.55a320.94,320.94,0,0,1-44.63,9.64,318.22,318.22,0,0,1-45.66,3.28,332,332,0,0,1-45.75-3.05A334,334,0,0,1,147.85,342l6.8-4.71a295.76,295.76,0,0,0-1.05,32.61,305.52,305.52,0,0,0,2.47,32.54l-2.56-3.69a185.66,185.66,0,0,0,40.54,16.83,188,188,0,0,0,43.51,7.05l5.54.13,2.77.07c.93,0,1.85,0,2.77,0l5.55-.21,2.78-.1,1.39-.05,1.38-.14,5.53-.53,2.77-.25,1.39-.13,1.38-.21,5.5-.84,2.76-.42c.92-.13,1.84-.29,2.75-.5,3.62-.82,7.29-1.53,10.91-2.43s7.21-1.93,10.79-3Z"/><path id="path6743" d="M410.23,305.59a372,372,0,0,1-61.45,27.63q-8,2.75-16.1,5.09c-2.7.8-5.43,1.51-8.15,2.22s-5.45,1.46-8.18,2.13c-11,2.65-22.07,4.72-33.24,6.4s-22.47,2.63-33.78,3.21-22.67.41-34-.13-22.65-1.9-33.9-3.59S159,344.36,148,341.49l-3.81-1,.3-4.08c.62-8.3,1.55-16.59,2.87-24.82s3-16.41,5.08-24.49l1.36-5.32,5.32,1.55A313.63,313.63,0,0,0,228,295.39a297,297,0,0,0,35,.06,290.89,290.89,0,0,0,34.91-3.95c2.9-.45,5.76-1.11,8.64-1.66s5.75-1.22,8.61-1.89c5.74-1.26,11.42-2.82,17.06-4.49a288.53,288.53,0,0,0,33.18-12.18A276.6,276.6,0,0,0,397,255.08q7.64-4.54,15-9.55c4.89-3.35,9.66-6.88,14.33-10.53l1-.77,0,1.23A196.18,196.18,0,0,1,416,302.25h0Zm0,0,5.77-3.36h0a179.3,179.3,0,0,0,10.07-66.76l1,.46q-6.89,5.72-14.09,11T398.3,257.21a308.5,308.5,0,0,1-31.1,17.85,292.47,292.47,0,0,1-33.08,14.12c-5.66,2-11.38,3.88-17.18,5.48s-11.62,3.13-17.49,4.47L290.59,301l-8.92,1.52c-6,.87-11.95,1.73-18,2.18a303.93,303.93,0,0,1-36.22,1,289.42,289.42,0,0,1-71.41-12.07l6.67-3.76c-2,7.78-3.81,15.63-5.22,23.56s-2.6,15.9-3.41,23.92l-3.51-5.06c10.65,3.09,21.43,5.7,32.3,8s21.9,3.75,33,5,22.2,1.7,33.36,1.83,22.32-.47,33.46-1.46,22.22-2.75,33.21-4.9c5.48-1.18,11-2.29,16.4-3.73s10.82-2.95,16.18-4.62A319.44,319.44,0,0,0,410.23,305.59Z"/><path id="path6747" d="M237,84.84l-16.73-12c-3.49-1.85-7-3.68-10.48-5.46s-7-3.55-10.53-5.29l-12.83-5,12.64-3.79a181.41,181.41,0,0,1,24-3.8c4.73-.42,9.23-.64,13.49-.7l5.23-.07,5.23.13,5.23.29c1.74.13,3.47.31,5.21.47l5.19.62a157.65,157.65,0,0,1,20.43,4.26l11.52,3.25q-5.43,2.82-10.84,5.66-8,4.58-16.44,10.11C259,79,251.46,84.49,244.63,89.9Zm3.79-3.79c11-7.06,16.29-10.71,19-12.73l.55-.41c1.45-1.09,4.89-3.62,9.39-6.6,3.39-2.24,6.86-4.33,10.32-6.46l1.09,8.22c-6.53-1.15-13.08-2.06-19.65-2.66L256.59,60l-4.94-.29-4.93-.21-4.94-.07h-4.94l-4.94.14-4.93.21-4.94.35c-6.57.5-13.13,1.32-19.68,2.37l1.2-8.11c3.42,2.11,6.78,4.33,10.08,6.61,4.32,3,7.31,5.32,9.7,7.14C227.4,71.24,233.27,75.64,240.83,81.05Z"/><path id="path6751" d="M113.15,277a296.49,296.49,0,0,1-40.46-25.29C65.48,246.36,58.91,241,53,235.7l-1-.81,0-1.45a184.49,184.49,0,0,1,23-87.82,185.33,185.33,0,0,1,62.48-66.69l2.27-1.46,2.55,1c5.61,2.15,11.14,4.5,16.6,7s10.86,5.14,16.15,8a282.21,282.21,0,0,1,30.6,19l5,3.57-4.35,4.13a348.52,348.52,0,0,0-30.21,32.78,357.53,357.53,0,0,0-26,36.35l-5.8,9.59-5.49,9.77-5.22,9.94-4.92,10.11A144.3,144.3,0,0,0,113.15,277Zm0-10.12c1.13-5.74,2.57-11.89,4.42-18.35A224.94,224.94,0,0,1,124.91,227l4.25-10.57c1.53-3.47,3-7,4.62-10.42l5-10.24,5.36-10.08a328.46,328.46,0,0,1,25-38.32,333.66,333.66,0,0,1,30.15-34.5l.64,7.7a307.8,307.8,0,0,0-29.83-17.82c-5.14-2.68-10.34-5.24-15.62-7.62s-10.63-4.61-16-6.69l4.81-.49a186.27,186.27,0,0,0-77.7,102.37,170.43,170.43,0,0,0-6.76,41.14,251.51,251.51,0,0,0,25.29,19A252.94,252.94,0,0,0,113.15,266.89Z"/><path id="path6755" d="M387.49,261.84c-3.33,2.08-6.93,4.19-10.8,6.27-3.33,1.79-6.56,3.39-9.67,4.83l-.1.05,0-.11a306.61,306.61,0,0,0-14.7-42.6,322.71,322.71,0,0,0-20.7-39.9,344.34,344.34,0,0,0-25.77-36.59,372.12,372.12,0,0,0-30-33l-4.2-4.12,5-3.42c5-3.45,10.16-6.8,15.43-9.91s10.61-6.11,16.08-8.85,11-5.37,16.65-7.75,11.33-4.62,17.12-6.6l2.54-.87,2.14,1.44a179,179,0,0,1,34.29,30.23,185,185,0,0,1,25.43,37.7A189.69,189.69,0,0,1,421.8,191a196.08,196.08,0,0,1,5.32,44.48v.23c-.15,1.13-.3,2.26-.44,3.39a180.75,180.75,0,0,1-19,12.64A183,183,0,0,1,387.49,261.84Zm-1.3,1.11c4.13-2.31,11.67-6.73,20.73-13,6-4.13,12.54-9,19.46-14.83a179.92,179.92,0,0,0-25.66-83.45,188.89,188.89,0,0,0-26.59-34.6,193.68,193.68,0,0,0-33.44-27.59l4.68.58c-5.53,2.06-11,4.18-16.46,6.53s-10.79,4.78-16.07,7.42-10.52,5.37-15.65,8.28S287,118.23,282,121.43l.78-7.54a319.2,319.2,0,0,1,28.93,35.39,342,342,0,0,1,23.61,38.94,365.18,365.18,0,0,1,18.38,41.45,389.36,389.36,0,0,1,13.36,43.17l-.13-.06C373.49,269.77,379.89,266.46,386.19,263Z"/><path id="path6759" d="M372.32,272c-3.87,1.37-9.57,3.49-16.41,6.37-5.24,2.21-7.82,3.55-11.32,5q-11.44,4.68-23.3,8.4l-1.63.51-.47-1.76a302.46,302.46,0,0,0-26.05-65.6,298.84,298.84,0,0,0-40.34-57.51A288.83,288.83,0,0,0,200.29,121a290.37,290.37,0,0,0-61.86-32.58l-11.38-2.34L137.46,79c4.87-3,9.7-6,14.78-8.57s10.23-5,15.5-7.17a191.4,191.4,0,0,1,32.59-10.08l1.92-.41,1.7,1q7.71,4.3,15.21,9t14.68,9.85a345.84,345.84,0,0,1,27.73,21.86A312.5,312.5,0,0,1,286.82,119c9.57,10.44,16.09,18.82,22.5,27.12,3.74,4.85,10.06,13,16.22,22.12,16.26,24,25.29,45.47,31.6,60.69A420.84,420.84,0,0,1,372.32,272Zm-8.85,2.53a287.62,287.62,0,0,0-22.76-65.74c-2.62-5.36-5.34-10.47-8.1-15.33s-5.89-9.9-9-14.73c-6.25-9.67-13-19-20.19-28a336.06,336.06,0,0,0-22.75-25.83c-4-4.1-8.1-8.12-12.31-12s-8.48-7.72-12.85-11.41a339.57,339.57,0,0,0-27.34-20.77q-7.09-4.84-14.42-9.31c-4.86-3-9.81-5.89-14.81-8.66l3.61.54A180.67,180.67,0,0,0,171.79,73c-5,2.07-9.85,4.36-14.6,6.87s-9.31,5.37-13.95,8.1l-1-9.5a300.08,300.08,0,0,1,63.9,34.14,295.14,295.14,0,0,1,53.4,48.83,293,293,0,0,1,21.65,29,282.51,282.51,0,0,1,17.9,31.35A296.79,296.79,0,0,1,313,255a299.11,299.11,0,0,1,9.51,34.65l-2.11-1.24q11.91-2.93,23.57-6.85c3.88-1.32,7.76-2.66,11.6-4.12.36-.14,1.73-.68,3.62-1.4S362.47,274.84,363.47,274.48Z"/><path id="path6763" d="M320.84,290.06c-16.56,1.67-24.08,7.57-40.24,10.16-3.43.55-6.87,1-10.3,1.54s-6.91.79-10.37,1.18-6.94.49-10.42.75-7,.24-10.44.36a274.56,274.56,0,0,1-41.79-2.42l-10.37-1.55c-3.44-.63-6.88-1.26-10.32-1.94l-10.23-2.36-10.15-2.72-4.43-1.18,1.14-4.64a283.85,283.85,0,0,1,13-40,289,289,0,0,1,18.67-37.7,285.87,285.87,0,0,1,24-34.55,280,280,0,0,1,28.82-30.61l3.46-3.17,3.24,3.24a300.22,300.22,0,0,1,27.29,31.86c15.1,20.35,23.82,37.51,31.42,52.65a467.54,467.54,0,0,1,25.29,60.68C326.61,289.67,324,289.74,320.84,290.06Zm0,0-4.15-2.94a277.23,277.23,0,0,0-11.38-35.4,282.28,282.28,0,0,0-40.61-70.31,286.57,286.57,0,0,0-27.41-30l6.7.08a305.83,305.83,0,0,0-27.25,30.11,301.28,301.28,0,0,0-41.2,69.71,309.76,309.76,0,0,0-13.28,38.39L159,283.82l9.76,2.87,9.86,2.53,9.93,2.24,10,1.91a316.93,316.93,0,0,0,40.6,4.25c3.4.07,6.82.18,10.23.21l10.24-.13c3.42-.15,6.84-.25,10.25-.43s6.83-.5,10.25-.79A333.17,333.17,0,0,0,320.84,290.06Z"/></g></g></svg>